<?xml version="1.0" standalone="no"?>
<!DOCTYPE svg PUBLIC "-//W3C//DTD SVG 20010904//EN"
 "http://www.w3.org/TR/2001/REC-SVG-20010904/DTD/svg10.dtd">
<svg version="1.0" xmlns="http://www.w3.org/2000/svg"
 width="941.000000pt" height="881.000000pt" viewBox="0 0 941.000000 881.000000"
 preserveAspectRatio="xMidYMid meet">

<g transform="translate(0.000000,881.000000) scale(0.100000,-0.100000)"
fill="#000000" stroke="none">
<path d="M5892 8800 c-245 -26 -480 -95 -702 -207 -605 -305 -1003 -894 -1065
-1580 -7 -71 -7 -72 -32 -62 -38 14 -3265 12 -3314 -3 -55 -16 -118 -73 -145
-132 l-24 -51 0 -642 0 -643 -52 0 c-209 -1 -426 -127 -509 -296 -31 -63 -34
-76 -34 -164 0 -133 24 -190 122 -290 l73 -74 -32 -25 c-57 -43 -107 -103
-136 -160 -23 -48 -27 -69 -27 -141 0 -73 4 -93 29 -144 35 -71 111 -149 194
-197 l62 -36 -66 -39 c-77 -45 -161 -131 -194 -200 -36 -73 -35 -197 1 -274
33 -70 101 -146 173 -190 31 -19 56 -37 56 -40 0 -3 -23 -18 -51 -35 -65 -39
-139 -117 -175 -186 -25 -48 -29 -65 -29 -144 0 -84 2 -94 34 -153 42 -77 128
-157 219 -205 80 -42 212 -84 287 -93 l54 -7 3 -656 c3 -618 4 -658 22 -691
26 -49 64 -88 111 -113 l40 -22 1615 -3 c1115 -1 1631 1 1667 8 74 16 134 59
168 122 27 50 29 62 33 195 l5 143 1651 1 c1426 1 1643 3 1591 15 -33 7 -76
11 -96 8 -32 -5 -37 -2 -42 18 -3 13 11 106 33 208 21 102 37 186 36 188 -2 1
-167 -18 -369 -42 l-365 -45 -60 -40 c-113 -78 -219 -111 -352 -111 -70 0
-209 25 -760 135 -371 74 -703 144 -737 156 -262 87 -439 373 -403 651 7 57
183 955 205 1044 4 20 -2 22 -101 39 -58 9 -109 13 -113 8 -4 -4 -31 -38 -60
-75 -29 -38 -54 -68 -56 -68 -2 0 -1 38 2 84 l6 85 -34 5 c-19 3 -74 13 -124
21 -49 8 -93 15 -97 15 -5 0 -8 -448 -8 -995 l0 -995 -1580 0 -1580 0 0 353 0
353 73 12 72 12 330 -94 c181 -52 332 -93 335 -90 3 3 12 31 21 62 10 37 21
57 31 56 7 -1 37 -18 66 -38 36 -27 58 -52 72 -84 24 -53 53 -88 92 -108 37
-19 763 -224 795 -224 69 0 158 51 187 108 25 49 216 740 216 782 0 73 -48
153 -110 184 -14 7 -95 32 -180 56 -85 24 -159 46 -164 51 -4 4 4 28 19 54 23
38 32 46 50 41 61 -16 172 -26 282 -26 l123 0 172 -121 c95 -67 194 -137 219
-155 l47 -34 61 253 61 252 63 66 c69 72 124 171 133 240 l6 44 -444 69 c-243
38 -446 71 -449 72 -4 2 26 104 66 226 l74 223 158 5 158 5 -55 21 c-185 71
-286 89 -505 89 -245 0 -383 -31 -567 -127 -113 -58 -232 -175 -279 -273 -29
-61 -34 -83 -37 -167 -5 -114 16 -191 77 -285 37 -56 141 -162 191 -194 l25
-16 -70 -73 c-39 -39 -91 -82 -116 -95 -25 -13 -51 -31 -58 -39 -16 -19 -171
-24 -171 -5 0 6 7 36 16 66 9 30 14 56 12 57 -1 2 -102 30 -223 64 -121 34
-243 68 -272 77 l-52 15 21 48 c12 27 23 77 26 118 l4 70 47 14 c57 16 48 13
101 37 25 11 72 30 105 44 33 13 62 27 65 30 3 3 15 9 27 13 12 4 25 16 28 27
4 10 10 19 14 19 8 0 9 4 16 69 8 80 -56 150 -150 166 -16 2 -36 0 -44 -4 -16
-10 -41 -4 -41 10 0 6 -5 15 -10 22 -6 7 -18 21 -28 33 -34 41 -119 69 -150
50 -22 -14 -23 -2 -1 60 17 47 20 74 16 131 l-5 72 30 10 c43 15 57 14 152
-13 307 -90 623 -23 702 148 47 101 24 188 -75 287 -116 115 -301 186 -511
196 -352 18 -579 -168 -469 -383 10 -21 18 -39 16 -40 -1 -2 -27 13 -57 31
-30 19 -81 44 -112 56 l-57 21 31 46 c90 130 99 276 26 414 -39 73 -127 157
-206 197 l-62 31 0 640 0 640 1580 0 1580 0 0 -1215 0 -1215 130 0 131 0 -7
908 -7 907 56 -110 c60 -119 173 -294 234 -364 l39 -44 54 42 c174 132 316
128 384 -12 36 -73 52 -203 40 -331 l-10 -98 71 -39 c107 -59 270 -126 399
-162 112 -31 143 -51 94 -61 -13 -2 -83 -14 -156 -26 -145 -23 -292 -57 -419
-95 l-81 -25 -33 -98 c-18 -53 -57 -155 -86 -227 -30 -71 -57 -138 -60 -147
-5 -17 7 -18 143 -20 82 -1 158 -1 169 1 11 1 67 4 125 8 97 5 122 2 330 -41
124 -25 232 -46 240 -46 8 0 36 37 62 82 l46 82 -46 27 c-26 15 -69 50 -95 78
-195 208 -129 541 130 664 64 30 75 32 178 32 105 0 114 -2 178 -33 86 -43
156 -113 199 -199 31 -64 33 -73 33 -178 0 -103 -2 -114 -31 -175 -39 -80 -96
-146 -163 -185 -28 -16 -51 -33 -51 -38 0 -4 42 -70 93 -146 l92 -139 155 -31
c120 -24 173 -40 236 -70 97 -49 194 -135 249 -223 l39 -64 324 -173 c178 -95
325 -171 326 -169 2 1 18 81 37 176 18 95 37 178 40 184 5 8 138 -15 438 -76
237 -48 436 -86 441 -84 15 5 -83 170 -170 291 -99 135 -335 371 -480 479
-290 216 -611 375 -972 483 -152 46 -396 99 -506 111 -36 4 -70 14 -79 22 -14
14 -5 18 85 42 627 168 1137 653 1341 1276 161 492 122 1020 -112 1489 -142
285 -390 562 -673 753 -213 142 -498 252 -774 297 -117 19 -367 27 -478 15z
m1265 -2287 c-24 -358 -272 -714 -611 -878 -473 -229 -1030 -93 -1347 328
-129 171 -219 415 -219 593 l0 44 1091 0 1092 0 -6 -87z m-5209 -1522 c218
-64 372 -197 372 -324 0 -56 -16 -90 -62 -133 -81 -77 -193 -110 -368 -108
-142 2 -275 30 -298 63 -12 18 -15 18 -86 -4 l-74 -23 -10 22 c-5 11 -26 41
-46 64 -28 34 -36 53 -36 83 0 21 -4 39 -8 39 -5 0 -16 16 -25 35 -58 123 34
246 223 297 92 25 314 19 418 -11z m-429 -891 c25 -13 28 -24 4 -12 -23 11
-87 5 -91 -8 -2 -6 -10 -10 -18 -10 -22 0 -5 28 24 38 30 10 51 8 81 -8z m48
-45 c0 -8 -4 -12 -9 -9 -4 3 -8 9 -8 15 0 5 4 9 8 9 5 0 9 -7 9 -15z m-250
-32 c0 -32 10 -83 26 -123 3 -8 8 -30 11 -49 l6 -33 -40 36 c-22 19 -65 50
-95 67 l-55 31 57 35 c32 19 65 41 73 49 18 18 18 19 17 -13z m1461 -478 c56
-16 102 -32 102 -36 0 -4 -61 -110 -136 -234 -75 -125 -132 -230 -128 -235 5
-4 92 -31 194 -60 102 -29 200 -61 219 -73 36 -22 70 -84 71 -129 0 -37 -197
-724 -218 -760 -9 -16 -30 -38 -47 -48 -64 -39 -78 -37 -467 74 -202 57 -383
113 -402 125 -34 21 -66 73 -66 108 -1 12 -36 42 -100 86 -55 37 -97 73 -95
80 2 6 34 118 70 247 36 129 75 265 86 303 l20 67 117 0 c103 0 119 2 129 18
6 11 31 28 55 40 32 14 108 86 259 241 118 121 219 219 224 217 6 -1 56 -16
113 -31z m-1133 -265 c137 -39 251 -72 252 -74 3 -3 -14 -61 -28 -91 -5 -11
-59 -198 -120 -415 -62 -217 -115 -399 -119 -403 -8 -9 -520 132 -520 142 1 4
37 24 82 46 103 49 196 137 236 221 38 83 39 194 0 276 -32 69 -91 135 -164
183 -38 25 -52 40 -47 50 5 7 35 33 68 57 33 25 66 52 74 61 7 9 19 17 25 17
7 0 124 -32 261 -70z m890 -1747 c52 -27 110 -88 130 -135 8 -21 15 -62 15
-93 0 -69 -20 -119 -68 -168 -63 -66 -104 -82 -207 -82 -73 0 -98 4 -131 22
-48 26 -110 92 -130 139 -21 50 -18 140 7 191 25 53 96 117 152 137 59 22 179
16 232 -11z"/>
<path d="M1664 3124 c-37 -55 25 -117 80 -80 19 12 26 25 26 49 0 42 -15 57
-57 57 -24 0 -37 -7 -49 -26z"/>
<path d="M2320 1525 c-93 -29 -170 -129 -170 -220 0 -55 40 -135 86 -173 41
-34 117 -62 169 -62 132 0 255 113 255 235 0 93 -77 191 -171 219 -63 19 -109
19 -169 1z"/>
<path d="M1820 6523 c-291 -31 -550 -173 -636 -349 -23 -47 -30 -75 -33 -141
-3 -75 0 -89 27 -148 18 -38 52 -86 81 -115 l51 -51 46 -182 c26 -100 50 -185
54 -190 4 -4 85 44 181 108 l174 115 65 0 66 0 29 50 c55 94 158 134 249 96
22 -9 41 -14 44 -12 2 3 16 48 31 101 15 53 30 97 34 98 4 1 39 -16 77 -38
l70 -40 0 -47 c0 -27 5 -48 10 -48 24 0 148 138 176 195 25 53 29 71 29 150 0
83 -2 95 -34 153 -113 207 -446 332 -791 295z"/>
<path d="M3310 6082 c-19 -8 -49 -30 -66 -48 -26 -30 -34 -34 -55 -26 -60 21
-129 -10 -158 -73 -27 -57 -20 -103 21 -138 46 -39 41 -36 159 -95 116 -58
137 -65 157 -49 14 11 50 84 56 114 1 10 11 36 21 58 10 22 18 44 16 49 -1 4
4 18 12 30 7 11 14 41 14 66 1 40 -4 49 -39 83 -22 21 -43 36 -45 33 -2 -2
-17 -1 -31 3 -17 5 -40 2 -62 -7z m-192 -140 c-16 -9 -29 -22 -29 -29 -3 -27
-4 -32 -11 -39 -12 -12 -9 25 3 49 14 26 28 37 49 37 9 0 3 -8 -12 -18z"/>
<path d="M2297 5853 c-2 -5 -14 -47 -26 -94 -13 -47 -26 -91 -30 -98 -6 -8
-23 -5 -62 14 -65 30 -90 31 -146 5 -31 -14 -52 -34 -79 -75 -77 -121 -88
-169 -55 -241 27 -59 163 -141 259 -156 121 -19 106 -29 194 121 l79 134 -21
22 c-21 22 -21 29 -15 171 l7 149 -50 28 c-28 15 -52 24 -55 20z"/>
<path d="M4775 5657 c-114 -55 -254 -187 -394 -369 l-71 -94 0 -457 0 -457
219 0 219 0 52 123 c69 161 162 443 194 589 39 172 49 266 44 407 -5 137 -25
206 -74 252 -37 35 -124 37 -189 6z"/>
<path d="M2399 5323 c-51 -87 -98 -168 -106 -179 -13 -21 -9 -25 108 -93 66
-39 124 -71 128 -71 8 0 215 349 210 354 -2 2 -44 27 -94 56 -49 28 -104 61
-121 71 l-32 19 -93 -157z m132 87 c28 -16 25 -58 -5 -66 -33 -8 -46 2 -46 36
0 24 7 34 28 39 2 1 12 -4 23 -9z"/>
<path d="M3050 5379 c-56 -25 -105 -71 -133 -124 -27 -53 -28 -146 -1 -197 32
-61 374 -439 411 -454 58 -25 83 -5 278 216 98 112 187 219 197 239 22 44 24
138 2 189 -53 127 -220 189 -349 128 -27 -12 -56 -30 -64 -39 -19 -23 -37 -21
-77 9 -73 56 -182 70 -264 33z m176 -44 c20 -8 49 -26 66 -40 20 -17 42 -25
68 -25 26 0 48 8 68 25 95 79 210 70 294 -23 46 -51 58 -113 34 -175 -16 -40
-338 -416 -378 -441 -13 -8 -23 -8 -35 0 -32 19 -365 398 -379 431 -65 150
107 313 262 248z"/>
<path d="M3100 5299 c-32 -13 -68 -47 -86 -81 -21 -40 1 -43 24 -4 24 41 73
69 122 71 19 0 35 5 35 10 0 14 -65 16 -95 4z"/>
<path d="M3230 5265 c7 -8 19 -15 27 -15 13 0 13 3 3 15 -7 8 -19 15 -27 15
-13 0 -13 -3 -3 -15z"/>
<path d="M5145 4250 c-22 -5 -53 -13 -68 -19 -36 -14 -37 -14 -31 4 6 13 -98
15 -912 13 l-919 -3 -64 -193 c-35 -106 -61 -195 -58 -199 4 -3 354 -61 779
-128 l773 -121 -3 -25 c-2 -13 -51 -258 -108 -544 -112 -559 -119 -619 -88
-739 41 -160 156 -302 305 -375 81 -40 112 -47 784 -181 475 -95 721 -140 765
-140 144 0 291 61 398 164 64 60 64 61 57 29 -5 -24 -3 -33 7 -32 7 0 168 19
357 42 l345 42 146 727 145 727 -304 163 c-168 90 -311 164 -318 166 -7 2 -13
-5 -13 -17 0 -11 -4 -23 -10 -26 -5 -3 -10 0 -10 7 0 36 -73 160 -129 221 -72
76 -138 121 -225 153 -34 12 -368 83 -742 158 -694 139 -752 147 -859 126z"/>
<path d="M7847 3633 c-4 -20 -2 -40 3 -43 5 -3 -88 -486 -207 -1074 -118 -587
-211 -1072 -206 -1076 10 -9 1475 -301 1481 -295 9 9 450 2220 443 2226 -7 7
-1466 299 -1492 299 -11 0 -18 -12 -22 -37z m331 -271 c99 -64 47 -225 -73
-225 -51 0 -81 16 -105 56 -72 117 62 244 178 169z"/>
<path d="M4310 3590 c0 -16 1 -30 3 -30 2 0 13 14 25 30 l23 30 -26 0 c-21 0
-25 -5 -25 -30z"/>
</g>
</svg>
