<?xml version="1.0" standalone="no"?>
<!DOCTYPE svg PUBLIC "-//W3C//DTD SVG 20010904//EN"
 "http://www.w3.org/TR/2001/REC-SVG-20010904/DTD/svg10.dtd">
<svg version="1.0" xmlns="http://www.w3.org/2000/svg"
 width="1264.000000pt" height="1392.000000pt" viewBox="0 0 1264.000000 1392.000000"
 preserveAspectRatio="xMidYMid meet">

<g transform="translate(0.000000,1392.000000) scale(0.100000,-0.100000)"
fill="#000000" stroke="none">
<path d="M5020 13270 l0 -570 -667 -2 -668 -3 -3 -1512 -2 -1513 -260 0 -260
0 0 345 0 345 -755 0 -755 0 0 -345 0 -345 -345 0 -345 0 0 -1713 0 -1713 -63
-124 c-119 -236 -162 -412 -162 -675 0 -270 42 -449 162 -685 l63 -124 0 -412
0 -411 -107 -70 c-219 -143 -396 -316 -525 -508 -181 -273 -267 -592 -239
-890 26 -267 118 -505 282 -728 l49 -67 1789 0 c1686 0 1791 1 1800 17 9 17
10 17 28 0 17 -14 41 -17 154 -17 74 0 139 -4 144 -9 6 -5 1674 -10 3950 -12
l3940 -4 57 80 c117 164 208 370 249 568 28 132 30 350 5 487 -80 446 -392
855 -858 1123 l-48 28 0 366 0 366 51 80 c95 147 159 308 201 501 32 145 32
435 0 583 -39 180 -115 363 -212 514 l-40 62 0 2539 0 2538 -445 0 -445 0 0
295 0 295 -605 0 -605 0 0 -295 0 -295 -310 0 -310 0 -2 668 -3 667 -642 3
-643 2 0 570 0 570 -1300 0 -1300 0 0 -570z m2430 -90 l0 -490 -1130 0 -1130
0 0 490 0 490 1130 0 1130 0 0 -490z m1290 -4907 l0 -4256 -132 129 c-223 218
-410 350 -703 494 -223 110 -405 178 -642 240 l-43 11 0 52 0 53 48 23 c145
70 343 208 474 331 285 265 492 638 574 1029 24 119 51 419 39 449 -3 9 -6
339 -5 734 l0 718 -353 0 -354 0 -39 31 c-82 67 -224 154 -349 214 -277 135
-539 195 -852 195 -431 0 -819 -129 -1174 -391 l-66 -49 -472 0 -471 0 0 -630
0 -630 125 0 126 0 -8 -37 c-12 -62 -8 -370 6 -473 75 -539 383 -1043 824
-1344 l57 -39 0 -151 0 -151 -123 -44 c-556 -200 -1031 -552 -1309 -970 -28
-42 -55 -80 -59 -85 -5 -6 -9 1922 -9 4397 l0 4407 2445 0 2445 0 0 -4257z
m1835 3297 l0 -215 -435 0 -435 0 -3 218 -2 217 437 -2 438 -3 0 -215z m895
-2740 l0 -2361 -77 66 c-42 36 -96 78 -120 93 l-43 27 -2 700 -3 700 -1030 0
-1030 0 -3 -757 -2 -758 156 0 155 0 -80 -80 c-116 -116 -203 -238 -276 -385
-98 -198 -137 -338 -155 -550 -22 -270 41 -576 166 -803 l34 -63 0 -447 -1
-447 -85 -54 c-47 -29 -86 -52 -88 -50 -1 2 -19 32 -39 65 l-37 62 0 3701 0
3701 1280 0 1280 0 0 -2360z m-8480 1105 l0 -265 -585 0 -585 0 0 265 0 265
585 0 585 0 0 -265z m689 -2377 c-1 -1748 -2 -1934 -16 -1858 -8 47 -32 137
-53 201 -75 226 -180 397 -352 575 l-108 111 0 541 0 542 -750 0 -750 0 0
-430 0 -429 -72 -34 c-139 -64 -262 -148 -391 -267 l-67 -62 0 1526 0 1526
1280 0 1280 0 -1 -1942z m1301 556 c0 -3 -31 -42 -69 -87 -181 -216 -317 -475
-387 -734 l-27 -103 -59 0 -58 0 0 458 c0 252 3 462 7 465 8 8 593 9 593 1z
m3200 -261 l0 -268 -53 100 c-65 123 -133 225 -226 338 -39 47 -71 88 -71 91
0 3 79 6 175 6 l175 0 0 -267z m2880 -532 l0 -568 -82 33 c-378 151 -804 136
-1187 -42 l-94 -44 -183 0 -184 0 0 595 0 595 865 0 865 0 0 -569z m-8070
-211 c0 -243 -4 -400 -9 -400 -6 0 -61 25 -123 55 -124 61 -254 105 -393 132
-164 31 -466 20 -622 -23 l-23 -6 0 321 0 321 585 0 585 0 0 -400z m4395 -706
c-28 -225 -170 -478 -350 -623 -210 -168 -419 -239 -675 -228 -251 11 -457 99
-642 275 -162 155 -269 364 -302 590 l-6 42 991 0 991 0 -7 -56z m-3377 -2706
l327 -3 3 -67 c3 -60 5 -68 22 -68 16 0 20 -7 20 -31 0 -24 4 -29 18 -25 9 2
42 12 73 22 l57 17 297 543 c163 299 302 550 309 559 10 13 54 15 376 13 l366
-3 -122 -450 -121 -450 116 -7 c64 -4 147 -16 186 -27 38 -11 71 -19 72 -18 1
2 7 80 14 175 7 94 16 172 20 172 6 0 219 362 219 373 0 2 -22 18 -49 36 -87
56 -151 177 -151 285 0 45 27 132 54 175 32 50 100 109 155 135 36 16 65 21
136 21 78 0 98 -4 146 -28 165 -81 239 -281 165 -444 -30 -65 -112 -154 -155
-168 -13 -4 -20 -12 -17 -20 9 -25 208 -320 223 -332 11 -8 47 -214 127 -718
68 -427 117 -710 125 -714 8 -5 -69 -143 -250 -447 -143 -241 -264 -445 -268
-453 -6 -9 -29 20 -76 93 l-68 106 -33 -39 c-51 -59 -171 -146 -254 -185 -147
-67 -158 -69 -555 -73 -251 -3 -383 -1 -435 7 -88 14 -194 51 -265 90 -27 16
-145 60 -262 98 l-212 70 -3 -107 -3 -106 -735 0 -735 0 0 995 0 995 380 5
380 5 -95 59 c-52 33 -151 86 -220 118 -69 33 -132 63 -140 67 -12 7 -16 39
-18 176 l-2 167 108 112 c114 118 207 247 274 380 52 104 113 290 130 396 11
74 13 -10 16 -698 l2 -782 328 -2z m-1158 1464 c0 -35 -32 -127 -68 -197 -52
-101 -173 -220 -272 -268 -101 -49 -176 -67 -283 -67 -107 0 -186 19 -287 68
-103 50 -221 167 -273 272 -38 76 -71 186 -61 201 3 5 284 9 625 9 592 0 619
-1 619 -18z m8220 -90 c0 -35 -32 -127 -68 -197 -52 -101 -173 -220 -272 -268
-101 -49 -177 -67 -285 -67 -110 0 -185 18 -285 67 -104 52 -221 169 -273 273
-38 76 -71 186 -61 201 3 5 284 9 625 9 592 0 619 -1 619 -18z m-5395 -112
c33 -13 63 -26 67 -30 5 -3 -44 -17 -107 -31 l-115 -25 0 78 0 78 48 -23 c26
-13 74 -34 107 -47z m-4295 -743 c41 -28 117 -73 169 -99 51 -26 87 -50 80
-52 -8 -3 -51 -14 -95 -25 -93 -24 -258 -80 -340 -116 -31 -14 -60 -25 -65
-25 -5 0 -9 119 -9 265 l0 266 92 -82 c51 -45 127 -105 168 -132z m8230 -33
c53 -35 134 -81 180 -103 80 -37 83 -40 55 -46 -136 -31 -384 -114 -467 -156
-21 -11 -40 -19 -43 -19 -3 0 -5 126 -5 281 l0 281 92 -87 c51 -48 136 -116
188 -151z m1857 -290 c-1 -2 -54 17 -117 41 l-115 43 -3 94 -3 94 58 41 c32
22 85 64 118 94 l60 52 3 -228 c1 -125 1 -229 -1 -231z m-9148 261 c59 -30 94
-67 122 -130 44 -100 18 -227 -62 -300 -22 -19 -39 -37 -39 -39 0 -4 118 -200
160 -266 5 -8 37 -238 70 -510 33 -272 64 -508 70 -524 9 -26 -6 -55 -193
-367 -111 -187 -205 -338 -210 -336 -17 5 -434 662 -425 668 6 4 37 247 69
540 32 294 58 535 58 535 1 1 9 4 19 6 14 4 152 213 152 231 0 2 -13 10 -30
17 -49 20 -117 101 -134 161 -20 66 -20 92 -1 157 47 157 227 232 374 157z
m671 -61 c0 -78 -2 -85 -17 -79 -10 4 -57 17 -105 29 -48 11 -88 23 -88 26 0
5 188 106 203 109 4 0 7 -38 7 -85z m7552 -6 c57 -17 131 -87 158 -150 44
-103 12 -233 -76 -306 l-35 -29 62 -99 c34 -54 66 -102 71 -105 5 -3 38 -237
73 -519 35 -283 67 -527 71 -543 3 -16 2 -32 -3 -36 -6 -3 -96 -151 -202 -328
-106 -178 -195 -323 -199 -322 -4 0 -61 84 -127 187 -65 103 -162 252 -213
331 -52 79 -90 146 -85 150 6 3 36 247 67 541 32 294 62 538 68 541 5 3 38 52
73 109 l63 103 -29 25 c-82 68 -112 200 -69 300 26 60 100 133 152 149 46 15
133 15 180 1z m518 -38 c0 -20 -15 -25 -45 -13 -15 5 -14 8 6 19 33 18 39 17
39 -6z"/>
<path d="M4220 11320 l0 -630 933 2 932 3 3 628 2 627 -935 0 -935 0 0 -630z
m1700 5 l0 -465 -770 0 -770 0 0 458 c0 252 3 462 7 465 3 4 350 7 770 7 l763
0 0 -465z"/>
<path d="M6600 11320 l0 -630 935 0 935 0 0 630 0 630 -935 0 -935 0 0 -630z
m1700 5 l0 -465 -767 2 -768 3 -3 450 c-1 248 0 456 3 463 3 9 167 12 770 12
l765 0 0 -465z"/>
<path d="M4220 9485 l0 -625 935 0 935 0 0 625 0 625 -935 0 -935 0 0 -625z
m1700 0 l0 -465 -770 0 -770 0 0 465 0 465 770 0 770 0 0 -465z"/>
<path d="M6600 9485 l0 -625 935 0 935 0 0 625 0 625 -935 0 -935 0 0 -625z
m1700 0 l0 -465 -767 2 -768 3 -3 450 c-1 248 0 456 3 463 3 9 167 12 770 12
l765 0 0 -465z"/>
<path d="M9160 9620 l0 -1240 455 0 455 0 0 1240 0 1240 -455 0 -455 0 0
-1240z m740 -5 l0 -1075 -285 0 -285 0 0 1075 0 1075 285 0 285 0 0 -1075z"/>
<path d="M10320 9620 l0 -1240 455 0 455 0 0 1240 0 1240 -455 0 -455 0 0
-1240z m740 -5 l0 -1075 -285 0 -285 0 0 1075 0 1075 285 0 285 0 0 -1075z"/>
<path d="M1650 8455 l0 -565 750 0 750 0 0 565 0 565 -750 0 -750 0 0 -565z
m1340 5 l0 -400 -585 0 -585 0 0 400 0 400 585 0 585 0 0 -400z"/>
<path d="M5213 4528 c-4 -7 -137 -249 -295 -538 -244 -445 -285 -526 -270
-531 21 -8 25 -7 -133 -54 -66 -20 -123 -39 -127 -43 -5 -5 -7 -305 -6 -667
l3 -659 163 -52 162 -52 0 30 0 30 55 -51 c69 -62 191 -124 288 -146 62 -14
129 -16 443 -13 l369 3 80 28 c108 38 187 88 265 167 75 76 120 148 158 252
l27 73 3 366 c3 410 -1 447 -63 574 -69 139 -175 242 -320 311 -104 50 -184
64 -377 64 -100 0 -168 4 -168 10 0 5 54 209 120 454 66 245 120 448 120 451
0 3 -110 5 -244 5 -185 0 -247 -3 -253 -12z m-463 -1076 c0 -5 -9 -17 -20 -27
-20 -18 -20 -17 -20 8 0 20 5 27 20 27 11 0 20 -4 20 -8z"/>
<path d="M2990 2700 l0 -870 610 0 610 0 0 870 0 870 -610 0 -610 0 0 -870z
m1011 676 c96 -66 90 -195 -11 -264 -29 -20 -44 -23 -88 -20 -200 17 -189 308
12 308 38 0 61 -6 87 -24z"/>
</g>
</svg>
