<?xml version="1.0" standalone="no"?>
<!DOCTYPE svg PUBLIC "-//W3C//DTD SVG 20010904//EN"
 "http://www.w3.org/TR/2001/REC-SVG-20010904/DTD/svg10.dtd">
<svg version="1.0" xmlns="http://www.w3.org/2000/svg"
 width="683.000000pt" height="651.000000pt" viewBox="0 0 683.000000 651.000000"
 preserveAspectRatio="xMidYMid meet">

<g transform="translate(0.000000,651.000000) scale(0.100000,-0.100000)"
fill="#000000" stroke="none">
<path d="M2348 6499 c-491 -40 -944 -350 -1168 -797 -49 -99 -102 -253 -127
-372 -26 -121 -25 -430 1 -550 57 -263 165 -481 335 -677 l72 -83 -495 -2
-496 -3 105 -150 105 -149 0 -422 0 -423 -56 -78 c-31 -43 -82 -131 -113 -195
l-56 -117 -58 -1 c-113 0 -238 -39 -316 -97 -40 -31 -81 -114 -81 -166 0 -53
34 -142 78 -207 49 -71 163 -184 250 -245 l70 -50 32 -98 c67 -210 173 -393
319 -549 l44 -48 1681 0 1682 0 41 43 c158 164 286 398 348 638 52 201 45 483
-18 682 l-24 75 146 6 c80 3 601 13 1156 22 556 10 1011 18 1013 19 3 3 -273
2430 -284 2493 l-5 32 -199 0 -200 0 0 40 c0 116 -63 308 -140 423 -26 40 -57
103 -68 142 -26 86 -49 124 -97 161 -51 39 -121 39 -192 2 -42 -21 -66 -27
-123 -27 -212 0 -405 -137 -519 -368 -40 -80 -78 -212 -87 -302 l-7 -71 -178
0 c-99 0 -179 -1 -180 -2 0 -2 -29 -305 -63 -675 l-64 -672 -90 -86 c-50 -47
-122 -123 -160 -168 -70 -82 -177 -227 -184 -248 -2 -7 -51 21 -113 64 -188
128 -376 219 -607 292 -115 36 -301 78 -401 90 -52 7 -91 25 -51 25 28 0 217
67 298 105 188 89 404 267 530 436 119 161 206 348 253 548 36 157 43 392 15
556 -36 209 -119 414 -234 583 -67 97 -230 266 -319 333 -230 170 -482 265
-764 289 -66 5 -124 9 -130 8 -5 0 -54 -4 -107 -9z m3123 -835 c-108 -118
-256 -363 -344 -571 l-26 -63 -82 0 -81 0 7 68 c26 240 157 465 333 568 63 37
147 63 205 63 l49 1 -61 -66z m532 -276 c43 -88 73 -193 83 -288 l7 -70 -82 0
c-74 0 -82 2 -77 18 11 38 28 311 22 365 -3 32 -2 56 3 53 5 -3 24 -38 44 -78z
m-1103 -500 l-1 -103 -31 -20 c-82 -52 -46 -175 52 -175 98 0 134 123 52 175
l-31 20 -1 98 0 97 575 0 575 0 0 -98 c0 -96 -1 -99 -26 -110 -37 -17 -58 -74
-44 -118 33 -98 190 -74 190 29 0 38 -29 82 -61 92 -18 6 -19 14 -17 108 l3
102 178 3 c137 2 178 0 182 -10 9 -27 281 -2423 276 -2429 -6 -6 -2421 -53
-2426 -47 -3 4 225 2460 230 2476 3 9 45 12 165 12 l160 0 0 -102z m-1631 -99
c-25 -230 -159 -445 -362 -577 -139 -91 -261 -126 -432 -126 -147 0 -227 18
-350 79 -251 123 -413 354 -450 643 l-7 52 804 0 804 0 -7 -71z m-1580 -924
c45 -63 81 -117 81 -120 0 -3 -238 -5 -529 -5 l-529 0 -81 116 c-45 63 -81
117 -81 120 0 2 238 4 529 4 l529 0 81 -115z m919 -85 c65 -33 109 -76 144
-143 19 -34 23 -58 23 -127 0 -73 -4 -92 -27 -135 -28 -54 -86 -114 -130 -137
l-28 -13 83 -124 82 -123 75 -471 76 -470 159 -32 c473 -94 697 -262 586 -437
-88 -139 -400 -252 -841 -304 -103 -13 -224 -18 -417 -18 l-273 -1 0 -62 0
-63 -570 0 -570 0 0 161 0 161 23 -6 c175 -50 370 -85 470 -86 26 0 89 -9 140
-21 467 -104 1100 -100 1553 10 278 68 459 169 494 276 28 83 -35 169 -177
242 -340 176 -1001 244 -1618 167 l-132 -17 -76 57 c-96 73 -272 173 -388 222
l-89 38 0 368 0 368 375 0 375 0 0 -505 c0 -498 0 -505 20 -505 20 0 20 7 20
525 l0 525 -415 0 -415 0 0 -380 0 -379 -77 27 -78 27 -3 478 -2 477 570 0
570 0 0 -646 c0 -609 1 -645 18 -642 15 3 18 25 23 233 4 127 14 328 24 448
l17 218 76 131 76 131 -24 16 c-45 29 -101 84 -116 114 -9 16 -14 30 -12 31 2
2 104 59 228 127 l225 124 -223 3 c-174 2 -222 5 -222 15 0 27 73 97 132 126
51 26 73 31 133 31 60 0 82 -5 133 -30z m-568 -101 l85 -28 -111 -1 -112 0
-35 39 c-19 22 -40 48 -46 60 -10 18 -5 18 61 -11 40 -17 111 -44 158 -59z
m-215 -9 l29 -30 -211 0 -210 0 -227 -126 c-125 -70 -231 -123 -235 -118 -20
23 -221 294 -221 299 0 3 235 5 523 5 l523 0 29 -30z m-990 -160 l105 -139 0
-481 c0 -264 -3 -480 -7 -479 -5 0 -53 11 -108 23 l-100 23 -3 597 c-1 328 0
596 3 596 2 0 52 -63 110 -140z m1671 91 c-3 -5 -88 -54 -189 -110 l-183 -101
-529 0 c-331 0 -525 4 -519 9 5 6 90 55 189 110 l180 101 528 0 c309 0 526 -4
523 -9z m-1624 -2125 l58 -21 0 -144 c0 -91 -4 -141 -9 -135 -6 5 -55 69 -110
143 -92 122 -101 138 -101 178 l0 43 53 -21 c28 -12 78 -31 109 -43z"/>
<path d="M5474 4320 c-129 -20 -227 -71 -325 -169 -121 -121 -169 -239 -169
-416 0 -84 5 -113 28 -181 144 -413 660 -530 967 -219 113 114 165 243 165
410 0 157 -49 282 -155 393 -133 141 -328 211 -511 182z"/>
</g>
</svg>
