<?xml version="1.0" standalone="no"?>
<!DOCTYPE svg PUBLIC "-//W3C//DTD SVG 20010904//EN"
 "http://www.w3.org/TR/2001/REC-SVG-20010904/DTD/svg10.dtd">
<svg version="1.0" xmlns="http://www.w3.org/2000/svg"
 width="1863.000000pt" height="1548.000000pt" viewBox="0 0 1863.000000 1548.000000"
 preserveAspectRatio="xMidYMid meet">

<g transform="translate(0.000000,1548.000000) scale(0.100000,-0.100000)"
fill="#000000" stroke="none">
<path d="M861 15099 c-104 -11 -243 -57 -340 -112 -41 -23 -112 -77 -158 -120
-129 -122 -209 -257 -256 -430 l-22 -82 -3 -5050 c-2 -3664 0 -5077 8 -5149
14 -122 40 -207 93 -311 117 -225 297 -369 562 -449 l70 -21 3418 -2 3417 -3
0 -920 0 -919 -32 -5 c-18 -3 -98 -13 -178 -22 -681 -73 -1254 -203 -1565
-354 -143 -70 -224 -131 -265 -202 -27 -47 -31 -60 -28 -115 3 -50 10 -71 34
-105 199 -284 1118 -509 2464 -603 768 -53 1699 -53 2470 1 1278 88 2197 302
2435 565 88 97 87 203 -1 308 -81 97 -342 219 -654 305 -264 73 -747 158
-1140 200 -80 9 -160 19 -177 22 l-33 5 0 919 0 920 3418 3 3417 2 70 21 c265
80 445 224 562 449 53 104 79 189 93 311 8 72 10 1485 8 5149 l-3 5050 -22 82
c-47 173 -127 308 -256 430 -143 135 -315 212 -516 232 -129 14 -16764 13
-16890 0z m16858 -757 c19 -9 44 -30 55 -45 l21 -28 3 -5021 c2 -4675 1 -5022
-15 -5055 -9 -19 -30 -44 -47 -54 -30 -18 -230 -19 -8421 -19 -8191 0 -8391 1
-8421 19 -17 10 -38 35 -47 54 -16 33 -17 380 -15 5055 l3 5021 21 28 c11 15
36 36 55 45 32 17 455 18 8404 18 7949 0 8372 -1 8404 -18z"/>
<path d="M9270 9250 l0 -4950 3958 0 c3453 0 3965 2 4020 15 182 43 338 189
395 370 l22 70 0 4495 c0 4335 -1 4497 -18 4555 -44 143 -141 263 -266 329
-138 72 244 66 -4148 66 l-3963 0 0 -4950z m4586 4245 c99 -14 199 -32 224
-39 25 -8 70 -20 100 -27 72 -16 224 -65 277 -90 24 -10 45 -19 49 -19 13 0
225 -104 289 -143 364 -218 644 -510 802 -837 56 -117 108 -254 119 -315 3
-22 10 -44 14 -50 34 -44 47 -495 18 -645 -55 -292 -166 -535 -353 -775 -200
-257 -548 -521 -845 -641 -33 -13 -88 -36 -122 -50 -151 -62 -454 -135 -637
-154 -133 -13 -469 -13 -602 0 -120 12 -258 39 -414 82 -627 169 -1152 580
-1403 1098 -41 84 -102 246 -102 270 0 10 -4 21 -9 24 -5 3 -12 27 -15 53 -4
27 -14 83 -23 126 -20 103 -14 446 11 557 38 174 71 268 151 430 225 459 697
848 1250 1032 393 130 819 170 1221 113z m2380 -4479 c164 -44 300 -186 334
-350 7 -36 10 -228 8 -597 -3 -542 -3 -544 -26 -601 -48 -118 -152 -222 -269
-270 l-58 -23 -2735 -3 c-2707 -2 -2736 -2 -2800 18 -82 25 -128 53 -195 119
-61 61 -98 125 -120 206 -22 88 -22 1082 0 1170 41 155 157 276 313 326 55 17
173 18 2777 18 2273 1 2728 -1 2771 -13z m-64 -2346 c179 -26 312 -130 380
-298 23 -57 23 -59 26 -601 2 -353 -1 -562 -8 -594 -18 -85 -60 -158 -129
-228 -71 -70 -140 -109 -229 -128 -75 -16 -5408 -16 -5484 0 -172 36 -321 185
-357 357 -7 35 -11 228 -11 570 0 433 3 527 15 577 49 188 197 318 390 344 88
12 5325 13 5407 1z"/>
<path d="M12946 13194 c-137 -30 -338 -105 -493 -185 -181 -94 -364 -230 -503
-373 l-44 -46 322 0 321 0 17 32 c73 141 203 308 361 466 72 71 116 122 105
121 -9 0 -48 -7 -86 -15z"/>
<path d="M13275 13143 c-110 -81 -299 -269 -383 -380 -34 -45 -62 -86 -62 -92
0 -5 -3 -11 -7 -13 -5 -1 -18 -18 -31 -35 l-23 -33 311 0 310 0 0 310 c0 241
-3 310 -13 310 -6 0 -53 -30 -102 -67z"/>
<path d="M13590 12900 l0 -310 305 0 306 0 -12 23 c-47 87 -163 232 -279 347
-102 103 -284 250 -308 250 -9 0 -12 -77 -12 -310z"/>
<path d="M14027 13113 c55 -54 124 -127 154 -163 30 -35 60 -71 67 -78 17 -19
121 -175 155 -234 l28 -48 322 0 322 1 -92 89 c-178 171 -419 328 -633 411
-167 64 -352 118 -410 119 -7 0 31 -44 87 -97z"/>
<path d="M11771 12410 c-25 -18 -142 -246 -174 -340 -42 -124 -81 -332 -69
-368 3 -9 102 -12 381 -12 l377 0 12 70 c7 39 12 84 12 101 0 83 78 393 126
496 28 61 45 58 -322 58 -185 0 -339 -2 -343 -5z"/>
<path d="M12669 12392 c-9 -13 -21 -36 -24 -52 -4 -17 -11 -32 -16 -35 -5 -4
-9 -13 -9 -22 0 -8 -6 -29 -14 -46 -19 -42 -50 -153 -70 -252 -20 -92 -36
-276 -26 -288 3 -4 202 -6 441 -5 l434 3 3 358 c1 196 -1 357 -5 358 -5 0
-163 1 -352 2 l-343 2 -19 -23z"/>
<path d="M13599 12409 c-5 -3 -8 -152 -7 -360 l3 -354 438 -3 437 -2 -1 72
c-1 103 -21 223 -55 338 -58 193 -106 309 -127 311 -64 4 -681 3 -688 -2z"/>
<path d="M14524 12409 c-2 -4 3 -20 11 -35 8 -16 15 -35 15 -42 0 -7 4 -20 9
-30 21 -39 59 -172 90 -312 7 -30 18 -109 24 -175 l12 -120 383 -3 382 -2 -1
52 c-1 100 -46 287 -96 398 -40 91 -108 221 -128 246 l-21 27 -338 1 c-186 1
-340 -2 -342 -5z"/>
<path d="M11534 11425 c3 -53 13 -115 21 -138 7 -23 17 -59 20 -80 4 -20 11
-40 16 -43 5 -3 9 -12 9 -20 0 -28 113 -262 153 -316 l21 -28 339 0 339 0 -7
33 c-4 17 -11 37 -15 42 -25 35 -102 330 -115 440 -3 28 -11 85 -17 128 l-10
77 -381 0 -380 0 7 -95z"/>
<path d="M12504 11488 c3 -18 8 -71 11 -118 8 -106 57 -318 86 -372 5 -10 9
-23 9 -30 0 -7 6 -24 13 -38 7 -14 21 -46 31 -73 12 -32 25 -49 39 -52 12 -3
173 -4 357 -3 l335 3 3 358 2 357 -445 0 -446 0 5 -32z"/>
<path d="M13592 11163 l3 -358 335 -3 c333 -3 380 0 380 18 0 5 11 33 24 62
27 58 60 153 71 208 4 19 11 41 16 50 15 27 43 206 52 323 l4 57 -444 0 -443
0 2 -357z"/>
<path d="M14685 11508 c-2 -7 -9 -67 -15 -133 -6 -66 -15 -133 -20 -150 -5
-16 -18 -68 -30 -115 -11 -47 -36 -130 -56 -185 -19 -55 -36 -104 -37 -110 -2
-12 662 -19 679 -7 29 20 132 219 169 327 9 28 21 59 26 70 4 11 13 45 19 75
6 30 15 75 20 100 5 25 9 66 9 93 l1 47 -380 0 c-296 0 -382 -3 -385 -12z"/>
<path d="M11910 10624 c0 -21 197 -196 315 -280 126 -89 337 -202 440 -234 22
-7 54 -18 70 -26 36 -16 225 -69 279 -78 21 -4 37 -4 35 1 -2 4 -38 41 -81 80
-89 85 -159 158 -214 228 -21 27 -47 59 -57 71 -10 12 -49 71 -86 130 l-68
109 -317 3 c-174 1 -316 0 -316 -4z"/>
<path d="M12780 10616 c0 -8 3 -16 8 -18 4 -1 25 -30 46 -63 60 -92 161 -211
255 -303 86 -83 273 -232 292 -232 6 0 8 115 7 313 l-3 312 -302 3 c-258 2
-303 0 -303 -12z"/>
<path d="M13590 10315 c0 -186 4 -315 9 -315 19 0 219 164 309 253 108 107
292 341 292 372 0 3 -137 5 -305 5 l-305 0 0 -315z"/>
<path d="M14379 10540 c-81 -139 -179 -262 -320 -404 -71 -71 -129 -131 -129
-133 0 -11 169 33 305 79 302 103 616 302 804 511 l33 37 -320 0 -320 0 -53
-90z"/>
<path d="M5145 12879 c-106 -14 -289 -57 -384 -90 -119 -41 -349 -156 -451
-224 -826 -556 -1104 -1631 -649 -2515 154 -299 369 -541 644 -725 114 -76
291 -169 383 -201 51 -18 68 -34 36 -34 -45 0 -268 -58 -424 -110 -718 -239
-1259 -677 -1535 -1245 -122 -248 -173 -454 -182 -720 -7 -206 6 -331 52 -510
68 -265 194 -512 375 -738 l54 -67 2331 0 2332 0 58 73 c197 245 337 541 397
839 20 97 23 143 23 333 0 190 -3 236 -23 333 -111 546 -454 1020 -997 1375
-204 133 -422 236 -695 327 -159 53 -379 110 -426 110 -30 0 -5 15 109 63 255
109 503 289 688 500 667 761 645 1904 -51 2630 -291 304 -617 485 -1033 573
-105 22 -152 26 -342 29 -121 2 -251 -1 -290 -6z m1235 -2273 c0 -81 -51 -243
-112 -358 -98 -183 -250 -329 -443 -424 -159 -78 -253 -99 -440 -98 -165 1
-236 15 -378 74 -223 93 -434 304 -528 528 -30 73 -62 190 -73 265 l-5 37 990
0 989 0 0 -24z m-835 -1389 c62 -33 82 -50 127 -109 52 -67 75 -161 61 -245
-18 -105 -77 -193 -163 -245 -19 -12 -36 -23 -38 -24 -5 -3 219 -338 231 -346
6 -3 61 -325 123 -714 62 -389 118 -710 124 -714 11 -7 -512 -896 -527 -894
-4 0 -126 182 -270 405 -144 222 -269 405 -277 407 -18 4 -23 41 -14 112 4 30
28 350 54 710 32 442 51 658 59 665 6 6 58 91 114 190 l102 180 -23 15 c-146
94 -208 263 -154 418 30 88 129 181 226 213 14 5 63 7 110 5 69 -2 94 -7 135
-29z"/>
</g>
</svg>
